# AST/ASF file generated using VICON BodyLanguage
# -----------------------------------------------
:version 1.10
:name VICON
:units
  mass 1.0
  length 0.45
  angle deg
:documentation
   .ast/.asf automatically generated from VICON data using
   VICON BodyBuilder and BodyLanguage model FoxedUp or BRILLIANT.MOD
:root
   order TX TY TZ RX RY RZ
   axis XYZ
   position 0 0 0  
   orientation 0 0 0 
:bonedata
  begin
     id 1 
     name lhipjoint
     direction 0.692814 -0.645514 0.321437 
     length 2.38754 
     axis 0 0 0  XYZ
  end
  begin
     id 2 
     name lfemur
     direction 0.34202 -0.939693 0  
     length 6.41921  
     axis 0 0 20  XYZ
    dof rx ry rz
    limits (-160.0 20.0)
           (-70.0 70.0)
           (-60.0 70.0)
  end
  begin
     id 3 
     name ltibia
     direction 0.34202 -0.939693 0   
     length 6.98247   
     axis 0 0 20   XYZ
    dof rx
    limits (-10.0 170.0)
  end
  begin
     id 4 
     name lfoot
     direction 0.0947186 -0.260237 0.960888   
     length 1.83034   
     axis -90 7.62852e-016 20   XYZ
    dof rx rz
    limits (-45.0 90.0)
           (-70.0 20.0)
  end
  begin
     id 5 
     name ltoes
     direction 1.53538e-011 -4.21952e-011 1   
     length 0.920499   
     axis -90 7.62852e-016 20   XYZ
    dof rx
    limits (-90.0 20.0)
  end
  begin
     id 6 
     name rhipjoint
     direction -0.631686 -0.693949 0.345555   
     length 2.2209  
     axis 0 0 0  XYZ 
  end
  begin
     id 7 
     name rfemur
     direction -0.34202 -0.939693 0   
     length 6.49542   
     axis 0 0 -20   XYZ
    dof rx ry rz
    limits (-160.0 20.0)
           (-70.0 70.0)
           (-70.0 60.0)
  end
  begin
     id 8 
     name rtibia
     direction -0.34202 -0.939693 0   
     length 7.21712   
     axis 0 0 -20   XYZ
    dof rx
    limits (-10.0 170.0)
 end
 begin
     id 9 
     name rfoot
     direction -0.0825378 -0.226771 0.970444   
     length 1.89724  
     axis -90 -7.62852e-016 -20   XYZ
    dof rx rz
    limits (-45.0 90.0)
           (-20.0 70.0)
  end
  begin
     id 10 
     name rtoes
     direction -1.53515e-011 -4.22016e-011 1   
     length 0.955868   
     axis -90 -7.62852e-016 -20   XYZ
    dof rx
    limits (-90.0 20.0)
  end
  begin
     id 11 
     name lowerback
     direction -0.0104711 0.984802 -0.173368   
     length 1.84931   
     axis 0 0 0   XYZ
    dof rx ry rz
    limits (-20.0 45.0)
           (-30.0 30.0)
           (-30.0 30.0)
  end
  begin
     id 12 
     name upperback
     direction -0.00286433 0.999996 -0.000382853   
     length 1.85768   
     axis 0 0 0   XYZ
    dof rx ry rz
    limits (-20.0 45.0)
           (-30.0 30.0)
           (-30.0 30.0)
  end
  begin
     id 13 
     name thorax
     direction 0.00167534 0.996793 0.0800069   
     length 1.92   
     axis 0 0 0   XYZ
    dof rx ry rz
    limits (-20.0 45.0)
           (-30.0 30.0)
           (-30.0 30.0)
  end
  begin
     id 14 
     name lowerneck
     direction -0.0672491 0.995415 0.068018   
     length 1.58923   
     axis 0 0 0   XYZ
    dof rx ry rz
    limits (-20.0 45.0)
           (-30.0 30.0)
           (-30.0 30.0)
  end
  begin
     id 15 
     name upperneck
     direction 0.0958019 0.982476 -0.159884   
     length 1.60189   
     axis 0 0 0   XYZ
    dof rx ry rz
    limits (-20.0 45.0)
           (-30.0 30.0)
           (-30.0 30.0)
  end
  begin
     id 16
     name head
     direction 0.032989 0.997338 -0.0650226  
     length 1.61681  
     axis 0 0 0   XYZ
    dof rx ry rz
    limits (-20.0 45.0)
           (-30.0 30.0)
           (-30.0 30.0)
  end
  begin
     id 17 
     name lclavicle
     direction 0.954279 0.298875 -0.00496069  
     length 2.99449  
     axis 0 0 0   XYZ
    dof ry rz
    limits (-20.0 10.0)
           (0.0 20.0)
  end
  begin
     id 18 
     name lhumerus
     direction 1 -4.48985e-011 -4.2057e-027   
     length 4.79185   
     axis 180 -30 -90   XYZ
    dof rx ry rz
    limits (-60.0 90.0)
           (-90.0 90.0)
           (-90.0 90.0)
  end
  begin
     id 19
     name lradius
     direction 1 -4.48945e-011 1.15441e-028   
     length 2.65553   
     axis 180 -30 -90   XYZ
    dof rx
    limits (-10.0 170.0)
  end
  begin
     id 20
     name lwrist
     direction 1 -4.4899e-011 4.8894e-028   
     length 1.32777   
     axis -2.56392e-016 90 90   XYZ
    dof ry
    limits (-180.0 0.0)
 end
  begin
     id 21 
     name lhand
     direction 1 -4.48908e-011 9.7788e-028   
     length 0.743904   
     axis -6.23971e-016 90 90   XYZ
    dof rx rz
    limits (-90.0 90.0)
           (-45.0 45.0)
  end
  begin
     id 22 
     name lfingers
     direction 1 -4.49068e-011 1.95576e-027   
     length 0.599754   
     axis -1.24794e-015 90 90   XYZ
    dof rx
    limits (0.0 90.0)
  end
  begin
     id 23
     name lthumb
     direction 0.707107 -6.34883e-011 0.707107   
     length 0.861131   
     axis -90 45 2.85299e-015   XYZ
    dof rx rz
    limits (-45.0 45.0)
           (-45.0 45.0)
  end
  begin
     id 24 
     name rclavicle
     direction -0.957921 0.286916 0.00811568   
     length 3.06817  
     axis 0 0 0   XYZ 
    dof ry rz
    limits (-10.0 20.0)
           (-20.0 0.0)
  end
  begin
     id 25 
     name rhumerus
     direction -1 -4.48971e-011 -3.07942e-027  
     length 4.77254   
     axis 180 30 90   XYZ
    dof rx ry rz
    limits (-90.0 60.0)
           (-90.0 90.0)
           (-90.0 90.0)
  end
  begin
     id 26 
     name rradius
     direction -1 -4.48957e-011 -9.6815e-028   
     length 2.75995   
     axis 180 30 90   XYZ
    dof rx
    limits (-10.0 170.0)
  end
  begin
     id 27 
     name rwrist
     direction -1 -4.48979e-011 4.8894e-028   
     length 1.37997   
     axis -2.56392e-016 -90 -90   XYZ
    dof ry
    limits (-180.0 0.0)
  end
  begin
     id 28
     name rhand
     direction -1 -4.48906e-011 9.7788e-028   
     length 0.701619   
     axis -6.23971e-016 -90 -90   XYZ
    dof rx rz
    limits (-90.0 90.0)
           (-45.0 45.0)
  end
  begin
     id 29
     name rfingers
     direction -1 -4.49018e-011 1.95576e-027   
     length 0.565663   
     axis -1.24794e-015 -90 -90   XYZ
    dof rx
    limits (0.0 90.0)
  end
  begin
     id 30
     name rthumb
     direction -0.707107 -6.34881e-011 0.707107   
     length 0.812183   
     axis -90 -45 -2.85299e-015   XYZ
    dof rx rz
    limits (-45.0 45.0)
           (-45.0 45.0)
  end
:hierarchy
  begin
    root lhipjoint rhipjoint lowerback
    lhipjoint lfemur
    lfemur ltibia
    ltibia lfoot
    lfoot ltoes
    rhipjoint rfemur
    rfemur rtibia
    rtibia rfoot
    rfoot rtoes
    lowerback upperback
    upperback thorax
    thorax lowerneck lclavicle rclavicle
    lowerneck upperneck
    upperneck head
    lclavicle lhumerus
    lhumerus lradius
    lradius lwrist
    lwrist lhand lthumb
    lhand lfingers
    rclavicle rhumerus
    rhumerus rradius
    rradius rwrist
    rwrist rhand rthumb
    rhand rfingers
  end

#!OML:ASF F:\VICON\USERDATA\INSTALL\rory3\rory3.ASF
:FULLY-SPECIFIED
:DEGREES
1223
root -0.649198 15.5322 -2.18504 2.39772 17.5914 6.2717
lowerback 25.0253 0.521861 6.74286
upperback 2.42656 3.43434 6.68265
thorax -11.3444 1.49444 2.50892
lowerneck -13.7713 -2.90601 -7.66806
upperneck 9.6708 -3.78464 10.5422
head 5.52607 -1.38586 4.26244
rclavicle 1.03368e-014 6.99722e-014
rhumerus 14.2098 7.24754 -79.2076
rradius 93.0596
rwrist 24.3025
rhand 28.8459 10.6988
rfingers 7.12502
rthumb 52.6664 -9.00249
lclavicle 1.03368e-014 6.99722e-014
lhumerus 10.7359 -0.980067 73.2829
lradius 91.3428
lwrist 2.55448
lhand 7.17923 30.8735
lfingers 7.12502
lthumb 32.4463 57.9889
rfemur -23.6555 -7.79236 12.0608
rtibia 45.4266
rfoot -18.1834 -13.7023
rtoes -3.8471
lfemur -22.0964 -8.50222 -21.0282
ltibia 28.2557
lfoot -2.00916 -5.64659
ltoes -5.56534
1224
root -0.643609 15.5301 -2.17506 2.25965 17.7258 6.13469
lowerback 24.946 0.488114 7.01687
upperback 2.24455 3.49212 6.8019
thorax -11.5058 1.50704 2.47487
lowerneck -13.5656 -2.89052 -7.68725
upperneck 9.65007 -3.78246 10.6353
head 5.48726 -1.38476 4.29644
rclavicle -5.40694e-014 -2.22639e-014
rhumerus 13.9652 7.05555 -79.314
rradius 93.0957
rwrist 24.2975
rhand 28.826 10.6994
rfingers 7.12502
rthumb 52.6484 -9.01304
lclavicle -5.40694e-014 -2.22639e-014
lhumerus 10.5503 -1.00554 73.208
lradius 91.3714
lwrist 2.48966
lhand 7.01428 30.9146
lfingers 7.12502
lthumb 32.2893 58.0621
rfemur -23.4561 -7.83529 12.1751
rtibia 45.42
rfoot -18.2024 -13.7992
rtoes -3.87919
lfemur -22.0797 -8.53584 -20.9208
ltibia 28.4718
lfoot -2.17454 -5.79645
ltoes -5.67133
1225
root -0.636153 15.5265 -2.16573 2.14231 17.8571 5.99566
lowerback 24.9086 0.485671 7.23095
upperback 2.02281 3.58882 6.95396
thorax -11.7426 1.53924 2.50064
lowerneck -13.3178 -2.86665 -7.656
upperneck 9.56477 -3.77304 10.7068
head 5.41925 -1.38179 4.31513
rclavicle -3.4191e-014 2.22639e-014
rhumerus 13.6595 6.80559 -79.3394
rradius 93.2053
rwrist 24.1563
rhand 29.1716 10.5238
rfingers 7.12502
rthumb 52.9607 -8.99341
lclavicle -3.4191e-014 2.22639e-014
lhumerus 10.3569 -1.02487 73.2303
lradius 91.4421
lwrist 2.45982
lhand 6.75249 31.0677
lfingers 7.12502
lthumb 32.0401 58.2656
rfemur -23.3004 -7.90202 12.2844
rtibia 45.4289
rfoot -18.2369 -13.8414
rtoes -4.25325
lfemur -22.0766 -8.52926 -20.8107
ltibia 28.655
lfoot -2.27382 -5.98757
ltoes -5.54189
1226
root -0.62806 15.5223 -2.15765 2.04116 18.0094 5.92345
lowerback 24.9251 0.509451 7.33447
upperback 1.78984 3.70494 7.14988
thorax -12.0335 1.58651 2.63367
lowerneck -13.1512 -2.83973 -7.6325
upperneck 9.51849 -3.74547 10.6952
head 5.37346 -1.37343 4.31002
rclavicle 4.85035e-014 8.5875e-014
rhumerus 13.3857 6.53974 -79.2836
rradius 93.1731
rwrist 24.2038
rhand 29.3261 10.5833
rfingers 7.12502
rthumb 53.1 -8.84554
lclavicle 4.85035e-014 8.5875e-014
lhumerus 10.0608 -1.0002 73.4114
lradius 91.5194
lwrist 2.39514
lhand 6.65439 31.0997
lfingers 7.12502
lthumb 31.9467 58.3163
rfemur -23.1467 -7.99611 12.3156
rtibia 45.4487
rfoot -18.2391 -13.8882
rtoes -4.5815
lfemur -22.058 -8.47376 -20.7847
ltibia 28.7944
lfoot -2.28311 -6.21418
ltoes -5.24385
1227
root -0.62283 15.5188 -2.14759 1.923 18.22 5.89667
lowerback 24.813 0.506941 7.40297
upperback 1.65744 3.74894 7.33237
thorax -12.1385 1.60796 2.79394
lowerneck -13.1425 -2.81825 -7.67977
upperneck 9.48985 -3.71629 10.7783
head 5.36302 -1.35583 4.34719
rclavicle 3.18055e-015 6.36111e-015
rhumerus 13.3154 6.28469 -79.233
rradius 92.9563
rwrist 24.576
rhand 28.7271 10.8921
rfingers 7.12502
rthumb 52.559 -8.87553
lclavicle 3.18055e-015 6.36111e-015
lhumerus 9.86356 -0.930722 73.5116
lradius 91.5805
lwrist 2.30219
lhand 6.74221 31.0477
lfingers 7.12502
lthumb 32.0303 58.2475
rfemur -22.9315 -8.07057 12.3058
rtibia 45.4813
rfoot -18.3463 -13.9994
rtoes -4.79364
lfemur -21.9777 -8.45104 -20.7977
ltibia 28.8868
lfoot -2.27941 -6.46413
ltoes -4.98353
1228
root -0.6169 15.5152 -2.13614 1.79693 18.458 6.01514
lowerback 24.6623 0.482599 7.40252
upperback 1.58443 3.72319 7.44117
thorax -12.1506 1.60106 2.93085
lowerneck -13.1748 -2.78038 -7.70757
upperneck 9.419 -3.67086 10.9259
head 5.346 -1.32455 4.40294
rclavicle 8.0309e-014 -3.81667e-014
rhumerus 13.262 5.99846 -79.1888
rradius 92.8727
rwrist 24.8916
rhand 28.3929 10.9051
rfingers 7.12502
rthumb 52.2565 -9.04694
lclavicle 8.0309e-014 -3.81667e-014
lhumerus 9.79025 -0.854938 73.4447
lradius 91.6878
lwrist 2.41214
lhand 6.80009 31.1015
lfingers 7.12502
lthumb 32.0854 58.2902
rfemur -22.65 -8.20413 12.1318
rtibia 45.5262
rfoot -18.4791 -14.0692
rtoes -5.21858
lfemur -21.7974 -8.45318 -20.9829
ltibia 28.9427
lfoot -2.27522 -6.70343
ltoes -4.78131
1229
root -0.610471 15.5112 -2.12517 1.64609 18.7728 6.11744
lowerback 24.5153 0.423031 7.50089
upperback 1.51819 3.67322 7.51277
thorax -12.1471 1.57638 2.97697
lowerneck -13.1948 -2.72963 -7.54176
upperneck 9.29324 -3.625 10.9551
head 5.30401 -1.29498 4.38743
rclavicle 8.90555e-014 -3.18055e-015
rhumerus 13.1221 5.59038 -79.1846
rradius 93.0116
rwrist 25.1376
rhand 28.6915 10.8257
rfingers 7.12502
rthumb 52.5268 -8.96179
lclavicle 8.90555e-014 -3.18055e-015
lhumerus 9.77562 -0.788932 73.3568
lradius 91.7667
lwrist 2.55421
lhand 6.86826 31.0816
lfingers 7.12502
lthumb 32.1503 58.2573
rfemur -22.3264 -8.39445 11.9597
rtibia 45.5706
rfoot -18.5642 -14.1255
rtoes -5.19628
lfemur -21.5951 -8.5511 -21.1573
ltibia 28.99
lfoot -2.2246 -6.84541
ltoes -4.73442
1230
root -0.605295 15.506 -2.1143 1.43732 19.1208 6.07291
lowerback 24.355 0.353062 7.73609
upperback 1.46319 3.64922 7.62132
thorax -12.1183 1.55822 2.9788
lowerneck -13.2241 -2.7249 -7.40062
upperneck 9.16759 -3.63903 11.0065
head 5.27048 -1.29376 4.37783
rclavicle -6.83819e-014 -4.13472e-014
rhumerus 13.0455 5.14526 -79.2307
rradius 93.0434
rwrist 25.4098
rhand 29.0707 10.8076
rfingers 7.12502
rthumb 52.8695 -8.76699
lclavicle -6.83819e-014 -4.13472e-014
lhumerus 9.78867 -0.761671 73.3169
lradius 91.7556
lwrist 2.58777
lhand 6.93542 31.0183
lfingers 7.12502
lthumb 32.2142 58.1811
rfemur -21.9799 -8.57163 11.9471
rtibia 45.6063
rfoot -18.6979 -14.206
rtoes -5.11862
lfemur -21.4101 -8.6451 -21.1776
ltibia 29.0514
lfoot -2.17998 -7.03799
ltoes -4.90983
1231
root -0.600874 15.5013 -2.10234 1.23171 19.407 5.96539
lowerback 24.2 0.281648 8.01147
upperback 1.37272 3.63962 7.73912
thorax -12.1325 1.54332 2.96518
lowerneck -13.173 -2.71152 -7.34955
upperneck 9.03597 -3.63658 11.1238
head 5.22298 -1.28598 4.40617
rclavicle -8.11041e-014 -1.59028e-014
rhumerus 12.8973 4.7851 -79.3454
rradius 93.0443
rwrist 25.6703
rhand 29.3654 10.9798
rfingers 7.12502
rthumb 53.1355 -8.42642
lclavicle -8.11041e-014 -1.59028e-014
lhumerus 9.71274 -0.774103 73.1533
lradius 91.7787
lwrist 2.6516
lhand 6.88194 30.9918
lfingers 7.12502
lthumb 32.1633 58.1649
rfemur -21.6653 -8.6679 12.0263
rtibia 45.6331
rfoot -18.7884 -14.3665
rtoes -5.47266
lfemur -21.2625 -8.63964 -21.1273
ltibia 29.126
lfoot -2.14081 -7.29237
ltoes -4.97564
1232
root -0.59711 15.4987 -2.08821 1.07756 19.6646 5.92953
lowerback 23.994 0.218399 8.19343
upperback 1.30725 3.60097 7.83505
thorax -12.0927 1.52091 2.98796
lowerneck -13.1814 -2.65032 -7.27441
upperneck 8.89496 -3.56696 11.2203
head 5.17522 -1.24467 4.42949
rclavicle 5.1684e-014 0
rhumerus 12.8026 4.55809 -79.4293
rradius 93.2103
rwrist 25.6679
rhand 29.8462 10.6505
rfingers 7.12502
rthumb 53.5686 -8.47506
lclavicle 5.1684e-014 0
lhumerus 9.72317 -0.706751 72.8786
lradius 91.8053
lwrist 2.79194
lhand 6.84876 31.0447
lfingers 7.12502
lthumb 32.1317 58.2242
rfemur -21.3637 -8.70474 12.0374
rtibia 45.6336
rfoot -18.9591 -14.5044
rtoes -5.4421
lfemur -21.134 -8.5656 -21.1461
ltibia 29.2096
lfoot -2.10373 -7.6035
ltoes -4.82542
